<svg width="28" height="24" viewBox="0 0 28 24" fill="none" xmlns="http://www.w3.org/2000/svg">
<path d="M22 16H19.3334V18.6667H22V16ZM22 10.6667H19.3334V13.3333H22V10.6667ZM24.6667 21.3333H14V18.6667H16.6667V16H14V13.3333H16.6667V10.6667H14V8H24.6667V21.3333ZM11.3334 5.33333H8.66669V2.66667H11.3334V5.33333ZM11.3334 10.6667H8.66669V8H11.3334V10.6667ZM11.3334 16H8.66669V13.3333H11.3334V16ZM11.3334 21.3333H8.66669V18.6667H11.3334V21.3333ZM6.00002 5.33333H3.33335V2.66667H6.00002V5.33333ZM6.00002 10.6667H3.33335V8H6.00002V10.6667ZM6.00002 16H3.33335V13.3333H6.00002V16ZM6.00002 21.3333H3.33335V18.6667H6.00002V21.3333ZM14 5.33333V0H0.666687V24H27.3334V5.33333H14Z" fill="black"/>
</svg>
