<svg width="23" height="23" viewBox="0 0 23 23" fill="none" xmlns="http://www.w3.org/2000/svg">
<path d="M21.505 11.9384L19.3488 6.90719C19.2937 6.77727 19.2017 6.66643 19.0841 6.58846C18.9665 6.5105 18.8286 6.46886 18.6875 6.46875H16.5312V5.03125C16.5312 4.84063 16.4555 4.65781 16.3207 4.52302C16.1859 4.38823 16.0031 4.3125 15.8125 4.3125H2.15625C1.96563 4.3125 1.78281 4.38823 1.64802 4.52302C1.51323 4.65781 1.4375 4.84063 1.4375 5.03125V17.25C1.4375 17.4406 1.51323 17.6234 1.64802 17.7582C1.78281 17.893 1.96563 17.9688 2.15625 17.9688H3.69437C3.85989 18.5778 4.22122 19.1155 4.72262 19.4988C5.22401 19.8821 5.83761 20.0898 6.46875 20.0898C7.09989 20.0898 7.71349 19.8821 8.21488 19.4988C8.71628 19.1155 9.07761 18.5778 9.24312 17.9688H13.7569C13.9224 18.5778 14.2837 19.1155 14.7851 19.4988C15.2865 19.8821 15.9001 20.0898 16.5312 20.0898C17.1624 20.0898 17.776 19.8821 18.2774 19.4988C18.7788 19.1155 19.1401 18.5778 19.3056 17.9688H20.8438C21.0344 17.9688 21.2172 17.893 21.352 17.7582C21.4868 17.6234 21.5625 17.4406 21.5625 17.25V12.2188C21.5623 12.1224 21.5428 12.0271 21.505 11.9384ZM16.5312 7.90625H18.2131L19.7512 11.5H16.5312V7.90625ZM6.46875 18.6875C6.18444 18.6875 5.90651 18.6032 5.67012 18.4452C5.43372 18.2873 5.24947 18.0628 5.14067 17.8001C5.03187 17.5374 5.0034 17.2484 5.05887 16.9696C5.11434 16.6907 5.25125 16.4346 5.45228 16.2335C5.65332 16.0325 5.90946 15.8956 6.18831 15.8401C6.46716 15.7847 6.75619 15.8131 7.01886 15.9219C7.28153 16.0307 7.50603 16.215 7.66399 16.4514C7.82194 16.6878 7.90625 16.9657 7.90625 17.25C7.90625 17.6312 7.7548 17.9969 7.48522 18.2665C7.21563 18.536 6.85 18.6875 6.46875 18.6875ZM13.7569 16.5312H9.24312C9.07761 15.9222 8.71628 15.3845 8.21488 15.0012C7.71349 14.6179 7.09989 14.4102 6.46875 14.4102C5.83761 14.4102 5.22401 14.6179 4.72262 15.0012C4.22122 15.3845 3.85989 15.9222 3.69437 16.5312H2.875V5.75H15.0938V14.7775C14.7665 14.9675 14.4799 15.2202 14.2505 15.5211C14.0211 15.8221 13.8533 16.1653 13.7569 16.5312ZM16.5312 18.6875C16.2469 18.6875 15.969 18.6032 15.7326 18.4452C15.4962 18.2873 15.312 18.0628 15.2032 17.8001C15.0944 17.5374 15.0659 17.2484 15.1214 16.9696C15.1768 16.6907 15.3137 16.4346 15.5148 16.2335C15.7158 16.0325 15.972 15.8956 16.2508 15.8401C16.5297 15.7847 16.8187 15.8131 17.0814 15.9219C17.344 16.0307 17.5685 16.215 17.7265 16.4514C17.8844 16.6878 17.9688 16.9657 17.9688 17.25C17.9688 17.6312 17.8173 17.9969 17.5477 18.2665C17.2781 18.536 16.9125 18.6875 16.5312 18.6875ZM20.125 16.5312H19.3056C19.1467 15.9157 18.7882 15.3701 18.2862 14.98C17.7842 14.5898 17.167 14.3771 16.5312 14.375V12.9375H20.125V16.5312Z" fill="#F5F5F5"/>
</svg>

