<?xml version="1.0" encoding="utf-8"?>
<!-- Generator: Adobe Illustrator 24.1.2, SVG Export Plug-In . SVG Version: 6.00 Build 0)  -->
<svg version="1.1" id="Слой_1" xmlns="http://www.w3.org/2000/svg" xmlns:xlink="http://www.w3.org/1999/xlink" x="0px" y="0px"
	 viewBox="0 0 462 386" style="enable-background:new 0 0 462 386;" xml:space="preserve">
<style type="text/css">
	.st0{fill-rule:evenodd;clip-rule:evenodd;fill:#EFF5FA;}
	.st1{fill-rule:evenodd;clip-rule:evenodd;fill:#EBB0E5;}
	.st2{fill-rule:evenodd;clip-rule:evenodd;fill:#1F28CF;}
	.st3{fill-rule:evenodd;clip-rule:evenodd;fill:#2B44FF;}
	.st4{fill-rule:evenodd;clip-rule:evenodd;fill:#191847;}
	.st5{fill-rule:evenodd;clip-rule:evenodd;fill:#E1D4C7;}
	.st6{fill-rule:evenodd;clip-rule:evenodd;fill:#668A31;}
	.st7{fill-rule:evenodd;clip-rule:evenodd;fill:#8FBA51;}
	.st8{fill:#AAA065;}
	.st9{fill:#938851;}
	.st10{fill-rule:evenodd;clip-rule:evenodd;fill:#83AC47;}
	.st11{fill-rule:evenodd;clip-rule:evenodd;fill:#B28B67;}
	.st12{fill-rule:evenodd;clip-rule:evenodd;fill:#2F3676;}
	.st13{fill-rule:evenodd;clip-rule:evenodd;fill:#CFCFCF;}
	.st14{fill-rule:evenodd;clip-rule:evenodd;fill:#997659;}
	.st15{fill-rule:evenodd;clip-rule:evenodd;fill:#5C63AB;}
	.st16{fill-rule:evenodd;clip-rule:evenodd;fill:#DB2721;}
	.st17{fill-rule:evenodd;clip-rule:evenodd;fill:#DDE3E9;}
	.st18{fill-rule:evenodd;clip-rule:evenodd;fill:#FF4133;}
	.st19{fill-rule:evenodd;clip-rule:evenodd;fill:#E496DC;}
</style>
<path class="st0" d="M27.8,283.4c15.3-60.6,121.9-17.6,194.9-31.4c73-13.7,164.1-95.9,217-48.5c52.9,47.4-14.5,147.7-144.7,161.9
	C164.7,379.6,12.5,344,27.8,283.4z"/>
<path class="st1" d="M261.6,260.2c0,0,59.4-73.1,59.4-105.9c0-32.8-26.6-59.4-59.4-59.4c-32.8,0-59.4,26.6-59.4,59.4
	C202.1,187.1,261.6,260.2,261.6,260.2z M261.6,180.7c14.6,0,26.3-11.8,26.3-26.3c0-14.6-11.8-26.3-26.3-26.3
	c-14.6,0-26.3,11.8-26.3,26.3C235.2,168.9,247,180.7,261.6,180.7z"/>
<path class="st2" d="M122.2,139.3l4.5,85.3l2.3,62.6l11.5,3.7l14.4-141.1L122.2,139.3z"/>
<path class="st3" d="M115.1,137c-8.6,26-19.6,61.3-20.9,62.7C93,201.1,37,222.4,37,222.4l2.7,12c0,0,63.9-17.3,68-21
	c4.2-3.7,31.1-41.2,46.1-64L115.1,137z"/>
<path class="st4" d="M24.4,225.9l12.4-4.4l5,12.2c-2.5,11.2-0.6,26.7-0.6,26.7l-2.3,1l-9.1-22.1l-1.9-8l-1.2,0.5L24.4,225.9z"/>
<path class="st4" d="M124.5,297.6l4.6-12.4l12.6,4c6.9,9.1,20.1,17.6,20.1,17.6l-0.8,2.4l-22.7-7.2l-7.4-3.7l-0.4,1.2L124.5,297.6z"
	/>
<path class="st5" d="M155.2,76.4c3.4,3.3,7,5.4,8.9,5.4c4.9-0.1,9.3-16.7,7.3-24.2c-2-7.4-19.5-14.6-23.5-1.8
	c-1.4,4.5-0.4,9,1.6,12.9l-10.6,22.3l14.7,3.5L155.2,76.4z"/>
<path class="st4" d="M159.8,60.2c1.7-1.6,3.3-2.7,5.1-3.2c6.4,1.6,7.5,0.7,8.4-3.2c-0.9-1-4.2-3.1-8.3-4.4c-2-1.1-4.5-1.6-7.1-1.1
	c-3.2,0.1-6.6,0.8-8.6,3.9c-5.6,6-3.8,14.5-0.2,17.9c1.4-1,2.6-2.1,3.8-3.1c-0.5-0.8-0.7-1.9-0.5-2.9c0.5-2,2.5-3.3,4.5-2.8
	c0.1,0,0.3,0.1,0.4,0.1c-0.5,2.6-2.2,11.2-1.9,14.4c0.3,3.8,6.9,6.3,9.3,6.8c2,0.5,2.4-1.5,2.7-2.9c0-0.2,0.1-0.4,0.1-0.6
	c0.1-0.4-0.4-0.5-0.9-0.6c-0.7-0.2-1.5-0.3-1.3-1.1c0.2-0.8,1.5-1.2,2.7-1.5c0.7-0.2,1.4-0.4,1.7-0.7c1-0.9,1.6-2.3,0.5-2.6
	c-0.6-0.1-1.6,0-2.7,0.2c-1.7,0.3-3.9,0.7-6.1,0.1C157.9,72.1,159.8,60.3,159.8,60.2z"/>
<path class="st5" d="M163.5,110.4l23.3-8.8c4.2-3.8,8.2-6.6,12-8.4c1.1-0.3,3-0.3,0.8,2.5c-2.2,2.8-4.3,5.9-3.6,7
	c0.8,1.1,3.2,0.1,4,1.8c0.6,1.2-3.5,2.3-12,3.4l-17.7,12.1L163.5,110.4z"/>
<path class="st6" d="M153.3,106.3c7.6,1,17.9,0.8,29.6-4.5l2.9,10c-8.5,6.3-19.8,10.9-28.8,9.3C149.8,120,147.4,110.8,153.3,106.3z"
	/>
<path class="st7" d="M106.2,164.5c11.6-0.6,43.4,15.4,50.8,4c14.7-22.4-1.6-58.6,0.2-86L140,80c-1.9-0.3-18.2,22.6-20.5,38.6
	C117.4,133.2,102.4,140.6,106.2,164.5z"/>
<path class="st8" d="M189.5,68.7L247,57.5c1.6-0.3,3.2,0.7,3.5,2.4l7.1,36.4c0.3,1.6-0.7,3.2-2.4,3.5L197.8,111
	c-1.6,0.3-3.2-0.7-3.5-2.4l-7.1-36.4C186.9,70.6,187.9,69,189.5,68.7z"/>
<path class="st9" d="M187.2,72.2c-0.3-1.6,0.7-3.2,2.4-3.5l16-3.1l8.2,42.3l-16,3.1c-1.6,0.3-3.2-0.7-3.5-2.4L187.2,72.2z"/>
<path class="st5" d="M205.1,116.5l8.3-7.2c0,0,0.4-7.9,3.1-8.6c1.3-1,0.2,5.9,2.7,4.8c2.5-1.1,8-7.3,9.3-6.6c2,1.1,1.4,5.9,0.2,8.5
	c-2.4,4.8-4.7,6.8-11,10.1c-4.9,2.6-10,8.3-10,8.3L205.1,116.5z"/>
<path class="st10" d="M152.3,90.1c0,0,5.6,34.5,18.1,36c12.4,1.5,39.9-15.5,39.9-15.5s10,12.9,10.8,19.1
	c-58.5,48.6-95.2,10.3-83.5-36.5L152.3,90.1z"/>
<path class="st11" d="M296.4,83.6c-2.4,3.6-5.3,6.1-7.1,6.4c-4.4,0.8-11.3-13.3-10.9-20.4s14.9-16.7,20.8-5.9c2.1,3.8,2,8,0.9,11.9
	l13.6,18.1l-12.6,5.8L296.4,83.6z"/>
<path class="st4" d="M282.6,59.9c1.5-1,5.9-3.3,6.7-3.7c0.5-0.2,1.1-0.4,1.2-1c0.1-0.5-0.3-1.1-0.5-1.6c-0.2-0.6-0.3-1.2-0.4-1.7
	c-0.3-1.7-0.4-3.3-0.3-5c0.3-3.2,1.5-6.1,3.6-8.4c2.3-2.6,5.5-4.4,8.8-5.6c3.5-1.3,7.1-1.6,10.7-2c3.5-0.4,6.8-1.5,9.8-3.4
	c3-2,4.6-4.8,6.5-7.7c2-2.9,4.6-5.5,8-6.8c3.2-1.2,6.5-1.2,9.8-0.7c3.1,0.5,5.9,1.5,8.2,3.6c2.5,2.3,3.9,5.4,3.2,8.9
	c-1.1,5-5.9,8.3-10.3,10.2c-2.5,1.1-5.2,1.8-8,2.1c-3.7,0.4-7.3-0.3-10.9-0.4c-1.7-0.1-3.4,0-5.1,0.3c-1.6,0.3-3.2,0.7-4.1,2.2
	c-1,1.6-1.8,3.1-3.1,4.4c-1.3,1.3-2.8,2.3-4.4,3.1c-3.2,1.4-6.8,1.9-10.2,2.7c-2.8,0.6-5.7,1.3-8,3c-1,0.7-2.3,1.9-2.2,3.2
	c7.1-1.8,13.3,5,14.2,11.8c0.5,3.6-3.8,10.1-6.9,9.5c-2-0.4-1.7-2.2-1.6-3.4c0.3-2.3-0.4-4.7-3-5c-2.3-0.2-2.9,3.1-3,3.1
	c-0.5,0.2-5.8-0.2-10.3-2.4c-2.8,1.5-4.1-0.2-4.1-2C277.1,65.2,280.5,61.3,282.6,59.9z"/>
<path class="st11" d="M344,134.9c3.3,13.8-47.7,73.9-47.7,75.1c0,0.8,34.9,40.5,34.9,40.5l-4.9,3.9c0,0-46.5-39-46.6-44.7
	c-0.1-8.2,33.7-64.9,33.7-64.9L344,134.9z"/>
<path class="st12" d="M327.5,244.1l-8,6.2c-26.1-15.4-39.3-30.8-40.9-40.3c-1.5-9.5,33.6-64.8,33.6-64.8l32.5-10.4
	c8.9,31.5-42.8,73.6-43.2,75.2C301.1,211.5,313.1,222,327.5,244.1z"/>
<path class="st13" d="M328,246.8c-0.4-1.1,0.1-2.4,1.2-2.7c1-0.3,2.3-0.6,3-0.6c1.6,0,4.5,0.6,4.5,0.6c-0.1,1.8-0.9,32.5-0.9,32.5
	s-4.2,1.2-4.5-1.6c-0.3-2.7-0.5-4.5-0.5-4.5l-6.1-14.9c-0.2-0.5,0-1.1,0.6-1.3l2-0.8c0,0,1.2-2.5,1.3-4.1
	C328.6,248.7,328.3,247.7,328,246.8z"/>
<path class="st14" d="M336.7,137.3l50.2,58.9l46.3,48.5l-6.6,2.1L314.4,144.4L336.7,137.3z"/>
<path class="st13" d="M429.3,239.8c-0.1-1.2,0.6-2.3,1.8-2.3c1.1-0.1,2.3-0.1,3.1,0.1c1.5,0.4,4.3,1.7,4.3,1.7
	c-0.5,1.7-8.4,31.4-8.4,31.4s-4.4,0.1-4-2.6c0.4-2.7,0.6-4.5,0.6-4.5l-2.5-15.9c-0.1-0.6,0.3-1.1,0.9-1.1l2.1-0.3
	c0,0,1.8-2.1,2.2-3.7C429.5,241.9,429.4,240.8,429.3,239.8z"/>
<path class="st15" d="M426.9,233.5l-13.8,7.4c-16.6-13-85.8-65.8-101.1-95.8l32.6-10.4C369.2,152.1,410.7,220.1,426.9,233.5z"/>
<path class="st11" d="M266.9,136.5l22,5.9l0.1-10.8l-19.7-0.4c-7-3.8-10.6-5.1-10.8-3.9c-0.2,1,0.5,1.6,1.1,2.1
	c0.5,0.4,0.9,0.8,0.9,1.3c0,1.2-3.3,2.3-6.4,3.3s-1.7,2-0.7,2.3C257.3,137,261.8,137.1,266.9,136.5z M316.9,144.4l-3,11.7
	c-22.4-1.9-34.9-2.6-37.4-2.1c-1.8,0.4-8.3,5-12.2,8.4c-1.6,1.4-2.8,0.3-3-0.4c-1.4-4.6,1-7,3.7-9.7c0.8-0.8,1.5-1.6,2.3-2.4
	c1.8-2.2,0.9-3.6,0-5c-0.8-1.2-1.5-2.3-0.2-3.9c0.3,0.2,0.6,0.5,1,0.8c2.4,2,5.9,4.9,8.9,4.6C278.6,146.2,291.9,145.6,316.9,144.4z"
	/>
<path class="st16" d="M311.7,88.4l-4.9,1.3c-5.5,14.1-1.3,26.9-6.5,32.9c-4.9,5.7-15,7-27.2,8.1l0.1,8.6c14.2,5.9,38.5,5.2,44.4-3.6
	C327.1,121.8,319.5,104.2,311.7,88.4z"/>
<path class="st17" d="M348.5,136c0,0-27.2,12.6-40,18.5c-1.8,0.8-2.7-1.9-3-3.4c-4-16.7,0.3-38.8-9.8-60.6l10.7-7.1
	C322.9,94.2,334.9,111.6,348.5,136z"/>
<path class="st18" d="M362.5,142.9l-36,16.6c-15.1-14.4-23.9-74.4-23.9-74.4l4.4-2C322.6,94.4,349.1,118.3,362.5,142.9z"/>
<path class="st18" d="M314.8,90.8l-4.9,1.3c-5.5,14.1,1.1,38.8-4.1,44.9c-4.9,5.7-15,7-27.2,8.1l0.1,8.6c14.2,5.9,38.5,5.2,44.4-3.6
	C332.7,136.2,322.7,106.6,314.8,90.8z"/>
<g>
	<path class="st19" d="M231.5,69.9L231.5,69.9c0,0-0.1,0-0.2,0.1c-0.1,0-0.1,0.1-0.2,0.1c-0.1,0-0.2,0.1-0.3,0.1
		c-0.1,0-0.2,0-0.3,0.1c-0.1,0-0.3,0-0.4,0c-0.1,0-0.3-0.1-0.4-0.1c-0.1-0.1-0.3-0.1-0.4-0.2c-0.1-0.1-0.2-0.2-0.3-0.3
		c-0.1-0.1-0.1-0.3-0.2-0.4c0-0.1,0-0.3,0-0.4c0-0.1,0-0.2,0.1-0.3c0-0.1,0.1-0.2,0.2-0.2c0.1-0.1,0.1-0.1,0.2-0.2
		c0,0,0.1-0.1,0.1-0.1c0,0,0,0,0,0l0,0c0,0,0,0,0,0c0,0,0,0,0,0c0,0,0,0,0,0c0,0-0.1,0.1-0.1,0.1c-0.1,0.1-0.2,0.2-0.2,0.4
		c-0.1,0.2-0.1,0.4,0,0.7c0.1,0.2,0.2,0.5,0.4,0.6c0.2,0.2,0.4,0.3,0.7,0.3c0.2,0.1,0.5,0,0.7,0c0.2,0,0.4-0.1,0.5-0.1
		C231.5,69.9,231.5,69.8,231.5,69.9C231.5,69.8,231.6,69.8,231.5,69.9C231.6,69.8,231.6,69.8,231.5,69.9 M231.1,69.6
		c-1.3,0.3-2.3-1.6-0.6-2.1c-1.8-0.3-3.9,1.7-3.9,3c0,0,0.9-0.1,2,0.4c1.1,0.5,2.9,0.7,4.4-0.4C233.3,70.3,232.4,69.3,231.1,69.6z"
		/>
	<path class="st19" d="M235.4,73.1c-0.1,0.2-0.2,0.4-0.5,0.6c-0.2,0.2-0.5,0.3-0.8,0.4c-0.3,0.1-0.6,0.1-0.9,0.1
		c-0.3,0-0.6,0-0.9-0.1c-0.3,0-0.6,0-0.9-0.1c-0.3,0-0.6,0-0.8,0c-0.1,0-0.3,0-0.4,0c-0.1,0-0.3,0-0.4,0c-0.2,0-0.5,0-0.7,0
		c-0.2,0-0.4,0.1-0.6,0.1c-0.2,0-0.3,0.1-0.4,0.1c-0.1,0-0.2,0.1-0.3,0.1c-0.1,0-0.1,0-0.1,0c0,0,0,0,0,0c0,0,0,0,0,0
		c0,0,0,0,0.1-0.1c0.1,0,0.1-0.1,0.3-0.1c0.1,0,0.3-0.1,0.4-0.1c0.2,0,0.4-0.1,0.6-0.1c0.9-0.1,2-0.1,3.2,0c0.3,0,0.6,0.1,0.9,0.1
		c0.3,0,0.6,0,0.8-0.1c0.3-0.1,0.5-0.2,0.7-0.3c0.2-0.1,0.4-0.3,0.4-0.5c0.1-0.2,0.1-0.4,0.1-0.6c0-0.2-0.1-0.3-0.1-0.4
		c-0.1-0.1-0.1-0.2-0.2-0.2c0,0-0.1-0.1-0.1-0.1c0,0,0,0,0,0c0,0,0,0,0,0c0,0,0,0,0.1,0.1c0,0.1,0.1,0.1,0.2,0.2
		c0.1,0.1,0.1,0.3,0.2,0.4C235.4,72.7,235.5,72.9,235.4,73.1 M226.4,71.6c0.2-0.1,0.4,0,0.6,0.1c0.2,0.1,0.5,0.2,0.7,0.3
		c0.2,0.1,0.5,0.2,0.7,0.2c0.5,0.1,1,0.1,1.4,0.1c0.4,0,0.7-0.1,1-0.1c0.1,0,0.2,0,0.3-0.1c0.1,0,0.1,0,0.1,0c0,0,0,0,0,0
		c0,0,0,0,0,0c0,0-0.1,0-0.4,0c-0.2,0-0.6,0.1-0.9,0c-0.4,0-0.8-0.1-1.3-0.2c-0.2-0.1-0.5-0.1-0.7-0.2c-0.2-0.1-0.5-0.2-0.7-0.3
		c-0.2-0.1-0.5-0.2-0.8-0.1c-0.2,0.1-0.5,0.3-0.5,0.5c0,0.1,0,0.2,0,0.4c0,0.1,0,0.1,0,0.2c0,0.1,0,0.1,0,0.1
		c-0.2,0.1-0.4,0.2-0.5,0.3c-0.3,0.2-0.5,0.5-0.6,0.7c-0.1,0.2-0.1,0.3-0.1,0.3c0,0,0,0,0,0c0,0,0,0,0,0c0,0,0-0.1,0.2-0.3
		c0.1-0.2,0.3-0.5,0.6-0.7c0.1-0.1,0.2-0.1,0.2-0.1c0,0,0.1,0,0.1-0.1l0.1,0l0,0l0,0l0,0l0,0l0,0c0,0,0,0,0.1-0.1c0,0,0,0,0,0
		c0,0,0,0,0-0.1c0,0,0,0,0-0.1c0,0,0-0.1,0-0.1c0-0.1,0-0.1,0-0.2c0-0.1,0-0.2,0-0.3C226,71.8,226.2,71.7,226.4,71.6z M233,71.1
		c-0.8,0.8-2.5,0.9-3.8,0.6c-1.3-0.3-2.2-0.9-3-0.6c-0.9,0.3-0.8,1.5-0.8,1.5s-1.3,0.7-1.2,2.4c0.1,1.6,1.4,1.6,1.4,1.6
		c-0.1-1.2,1.4-0.9,3.8-0.5c2.4,0.4,6.3-0.6,6.4-2.5C235.9,71.4,233.8,70.3,233,71.1z"/>
	<path class="st19" d="M231.4,78.3C231.3,78.3,231.3,78.3,231.4,78.3C231.3,78.3,231.3,78.3,231.4,78.3L231.4,78.3z"/>
	<path class="st19" d="M219,85.5c-0.3,0.1-0.5,0.3-0.6,0.6c0.3,0.1,0.6,0.1,0.8,0c0.1,0,0.2-0.1,0.3-0.2c0.1-0.1,0.1-0.2,0-0.3
		c0-0.1-0.1-0.1-0.2-0.1C219.2,85.5,219.1,85.5,219,85.5 M219.3,84.9c0.4-0.1,0.7,0,0.9,0.1c0.2,0.1,0.3,0.3,0.4,0.6
		c0,0.2,0,0.4-0.1,0.6c-0.1,0.2-0.3,0.3-0.5,0.4c-0.2,0.1-0.4,0.2-0.7,0.2c-0.3,0-0.6,0-0.9-0.2c0,0.3,0,0.5,0,0.8
		c0.1,0.2,0.1,0.4,0.3,0.6c0.1,0.2,0.3,0.3,0.5,0.3c0.2,0,0.4,0,0.6-0.1c0.5-0.2,0.8-0.5,0.9-0.8c0,0,0,0,0.1,0c0,0,0.1,0,0.1,0.1
		c0,0,0.1,0.1,0.1,0.1c-0.1,0.3-0.3,0.6-0.5,0.8c-0.2,0.2-0.5,0.4-1,0.5c-0.2,0.1-0.5,0.1-0.7,0.1c-0.2,0-0.4-0.1-0.6-0.1
		c-0.2-0.1-0.4-0.2-0.5-0.4c-0.1-0.2-0.2-0.4-0.3-0.7c-0.1-0.3-0.1-0.5,0-0.8c0-0.3,0.1-0.6,0.3-0.8c-0.1-0.1-0.2-0.3-0.3-0.5
		c0-0.1,0.1-0.1,0.1-0.2c0.1-0.1,0.2-0.1,0.2,0c0.1,0.1,0.1,0.2,0.2,0.3C218.2,85.3,218.7,85,219.3,84.9z"/>
	<path class="st19" d="M221.9,85.8c0.3-0.1,0.5-0.1,0.8-0.1c0.3,0,0.5,0.1,0.7,0.2c0,0.1,0,0.2-0.1,0.3c-0.1,0.1-0.1,0.2-0.2,0.2
		c-0.2-0.1-0.5-0.1-0.9-0.1c-0.2,0-0.3,0.1-0.4,0.3c-0.1,0.1-0.2,0.3-0.2,0.5c0,0.4,0,0.5,0.2,0.5c0.1,0,0.2-0.2,0.2-0.4
		c0.1-0.2,0.1-0.4,0.1-0.6c0.1-0.1,0.2-0.1,0.4-0.1c0.2,0,0.3,0,0.4,0.1c0,0.1,0,0.2,0,0.3c0,0.3,0,0.4,0.2,0.4
		c0.1,0,0.2-0.1,0.3-0.2c0.1-0.1,0.2-0.3,0.2-0.4c0,0,0,0,0.1,0c0,0,0.1,0,0.1,0.1c0,0,0.1,0,0.1,0.1c-0.2,0.7-0.7,1.1-1.2,1.2
		c-0.3,0.1-0.5-0.1-0.5-0.5c0,0.1-0.1,0.2-0.1,0.3c0,0.1-0.1,0.2-0.2,0.3c-0.1,0.1-0.2,0.2-0.4,0.2c-0.5,0.1-0.9-0.1-0.9-0.7
		c0-0.3,0-0.6,0.1-0.8c0.1-0.3,0.3-0.5,0.5-0.6C221.4,86,221.6,85.9,221.9,85.8"/>
	<path class="st19" d="M226.8,86.1c0,0,0.1,0,0.2,0c0.1,0,0.1,0.1,0.1,0.1c-0.2,0.7-0.6,1.1-1.1,1.2c-0.3,0.1-0.5,0-0.6-0.2
		c-0.2-0.2-0.3-0.5-0.3-0.9c0.2-0.1,0.3-0.2,0.3-0.4c0-0.1,0-0.2-0.1-0.2c0,0,0,0-0.1,0c-0.1,0-0.1,0.1-0.2,0.1
		c-0.1,0.1-0.1,0.1-0.1,0.2c0,0,0,0.2,0,0.6c0,0.3,0,0.6,0,0.8c0,0.1-0.2,0.2-0.5,0.2c-0.3,0.1-0.5,0.1-0.5,0c0-0.3,0-1,0.1-1.9
		c0-0.9,0.1-1.5,0.1-1.8c0-0.1,0.1-0.1,0.3-0.1c0.2,0,0.3-0.1,0.5-0.1c0.2,0,0.2,0,0.3,0.1c0,0.1,0,0.6-0.1,1.6
		c0.1-0.1,0.2-0.2,0.2-0.3c0.1-0.1,0.1-0.1,0.3-0.2c0.1-0.1,0.2-0.1,0.3-0.1c0.2,0,0.4,0,0.5,0.2c0.1,0.2,0.1,0.4,0,0.6
		c-0.1,0.2-0.2,0.4-0.4,0.5c0,0.2,0.1,0.3,0.2,0.4c0.1,0.1,0.1,0.1,0.2,0.1c0.1,0,0.3-0.1,0.4-0.2C226.6,86.5,226.7,86.3,226.8,86.1
		"/>
	<path class="st19" d="M228,85.1c-0.1,0-0.1,0.1-0.2,0.2c0,0.1-0.1,0.3,0,0.4c0.1,0,0.2-0.1,0.3-0.2c0.1-0.1,0.1-0.2,0.1-0.3
		C228.1,85.1,228,85.1,228,85.1 M228,84.5c0.2,0,0.3,0,0.5,0c0.1,0,0.3,0.1,0.3,0.2c0.1,0.1,0.1,0.2,0.2,0.3c0,0.1,0,0.2,0,0.3
		c0,0.2-0.2,0.4-0.3,0.5c-0.2,0.1-0.4,0.2-0.7,0.2c0.1,0.2,0.3,0.3,0.5,0.3c0.2,0,0.5-0.1,0.7-0.2c0.2-0.2,0.4-0.4,0.4-0.6
		c0,0,0,0,0.1,0c0,0,0.1,0,0.1,0.1c0,0,0.1,0,0.1,0.1c-0.1,0.4-0.3,0.7-0.5,0.9c-0.2,0.2-0.5,0.3-0.9,0.4c-0.4,0.1-0.7,0.1-1-0.1
		c-0.3-0.1-0.4-0.4-0.5-0.7c-0.1-0.4,0-0.7,0.2-1C227.2,84.8,227.5,84.6,228,84.5z"/>
	<path class="st19" d="M234.3,81.7c0.1,0,0.2,0,0.3,0c0.1,0,0.2,0.1,0.2,0.1c0.1,0.1,0.1,0.1,0.1,0.2c0,0.1,0.1,0.2,0.1,0.2
		c0,0.1,0,0.2,0,0.3c0,0.1,0,0.2,0,0.3c0,0.1,0,0.2,0,0.2c0,0,0,0.1,0,0.1c0,0.1,0,0.3,0,0.6c0,0.2,0,0.4,0,0.5c0,0.1,0,0.3,0,0.4
		c0,0.1,0,0.2,0.1,0.3c0,0.1,0.1,0.1,0.2,0.2c0.1,0.1,0.1,0.2,0,0.4c-0.1,0.2-0.2,0.3-0.4,0.4c-0.2,0-0.3,0-0.4,0
		c-0.1-0.1-0.2-0.2-0.3-0.3c-0.1-0.1-0.1-0.3-0.1-0.5c0-0.2-0.1-0.4-0.1-0.6c0-0.2,0-0.4,0-0.6c0-0.2,0-0.4,0.1-0.7
		c0-0.1,0-0.1,0-0.2c0-0.1,0-0.1,0-0.2c0-0.1,0-0.1,0-0.2c0,0,0-0.1,0-0.1c0,0,0-0.1,0-0.1c0,0,0,0-0.1,0c-0.2,0-0.3,0.2-0.5,0.5
		c-0.2,0.3-0.2,0.7-0.3,1.2c0,0.3,0,0.6,0,1c0,0.4,0,0.6,0,0.6c0,0.1-0.2,0.2-0.5,0.2c-0.3,0.1-0.4,0-0.5,0c0-0.2,0-0.7,0.1-1.4
		c0-0.7,0.1-1.3,0.1-1.7c0,0.1-0.1,0.1-0.2,0.2c-0.1,0.1-0.2,0.1-0.2,0.2c-0.1,0-0.2,0.1-0.2,0.2c-0.1,0.1-0.1,0.1-0.1,0.2
		c0,0.1,0,0.2,0,0.2c0,0,0.1,0.1,0.1,0.1c0,0,0,0.1,0,0.2c0,0.1-0.1,0.2-0.1,0.2c-0.2,0.1-0.5,0.1-0.7,0c-0.2-0.1-0.4-0.3-0.4-0.6
		c0-0.2,0-0.3,0.1-0.4c0.1-0.1,0.2-0.2,0.4-0.3c0.2-0.1,0.3-0.2,0.5-0.2c0.2-0.1,0.3-0.2,0.5-0.3c0.2-0.1,0.3-0.2,0.4-0.4
		c0.1-0.1,0.2-0.1,0.5-0.2c0.2,0,0.4,0,0.4,0.1c0,0.1,0,0.3-0.1,0.5c0.1-0.2,0.3-0.4,0.5-0.6C233.9,81.8,234.1,81.7,234.3,81.7"/>
	<path class="st19" d="M237.1,82.6c0-0.1,0.2-0.1,0.5-0.2c0.3,0,0.4,0,0.5,0.1c0,0.1,0,0.2,0,0.4c0,0.2,0,0.3,0,0.5
		c0,0.1,0,0.3,0,0.4c0,0.1,0,0.2,0,0.3c0,0.1,0,0.1,0.1,0.1c0.1,0,0.2-0.1,0.3-0.2c0.1-0.1,0.2-0.3,0.2-0.4c0,0,0.1,0,0.2,0
		c0.1,0,0.1,0.1,0.1,0.1c-0.1,0.3-0.2,0.5-0.4,0.8c-0.2,0.2-0.4,0.4-0.7,0.4c-0.2,0-0.3,0-0.4-0.1c-0.1-0.1-0.1-0.3-0.1-0.5
		c-0.2,0.5-0.5,0.8-0.9,0.9c-0.1,0-0.2,0-0.3,0c-0.1,0-0.2-0.1-0.2-0.1c-0.1,0-0.1-0.1-0.1-0.2c0-0.1-0.1-0.2-0.1-0.2
		c0-0.1,0-0.2,0-0.2c0-0.4,0-0.8,0.1-1.5c0.1-0.1,0.2-0.1,0.5-0.2c0.3,0,0.4,0,0.5,0.1c-0.1,0.9-0.1,1.4-0.1,1.5
		c0,0.1,0.1,0.2,0.1,0.2c0.1,0,0.1-0.1,0.2-0.3c0.1-0.2,0.1-0.4,0.1-0.5C237.1,83.4,237.1,83,237.1,82.6"/>
	<path class="st19" d="M239.9,82c0.3-0.1,0.5-0.1,0.8-0.1c0.3,0,0.5,0.1,0.7,0.2c0,0.1,0,0.2-0.1,0.3c-0.1,0.1-0.1,0.2-0.2,0.2
		c-0.2-0.1-0.5-0.1-0.9-0.1c-0.2,0-0.3,0.1-0.4,0.3c-0.1,0.1-0.2,0.3-0.2,0.5c0,0.4,0,0.5,0.2,0.5c0.1,0,0.2-0.2,0.2-0.4
		c0.1-0.2,0.1-0.4,0.1-0.6c0.1-0.1,0.2-0.1,0.4-0.1c0.2,0,0.3,0,0.4,0.1c0,0.1,0,0.2,0,0.3c0,0.3,0,0.4,0.2,0.4
		c0.1,0,0.2-0.1,0.3-0.2c0.1-0.1,0.2-0.3,0.2-0.4c0,0,0,0,0.1,0c0,0,0.1,0,0.1,0.1c0,0,0.1,0,0.1,0.1c-0.2,0.7-0.7,1.1-1.2,1.2
		c-0.3,0.1-0.5-0.1-0.5-0.5c0,0.1-0.1,0.2-0.1,0.3c0,0.1-0.1,0.2-0.2,0.3c-0.1,0.1-0.2,0.2-0.4,0.2c-0.5,0.1-0.9-0.1-0.9-0.7
		c0-0.3,0-0.6,0.1-0.8c0.1-0.3,0.3-0.5,0.5-0.6C239.5,82.2,239.7,82.1,239.9,82"/>
	<path class="st19" d="M243.4,84.5c0-0.1,0-0.2,0-0.4c-0.2,0.1-0.4,0.2-0.4,0.4c0,0.1,0,0.2,0.1,0.2
		C243.2,84.8,243.3,84.7,243.4,84.5C243.4,84.6,243.4,84.6,243.4,84.5 M244.9,82.2C245,82.2,245,82.2,244.9,82.2c0.1,0,0.2,0,0.2,0
		c0,0,0.1,0,0.1,0.1c-0.1,0.4-0.3,0.7-0.4,1c-0.2,0.3-0.3,0.5-0.5,0.6c0,0.2,0,0.3-0.1,0.4c0,0.1-0.1,0.3-0.1,0.4
		c-0.1,0.1-0.2,0.3-0.3,0.4c-0.1,0.1-0.3,0.2-0.5,0.2c-0.3,0.1-0.5,0-0.6,0c-0.2-0.1-0.3-0.2-0.3-0.5c0-0.5,0.3-0.8,1.2-1.1
		c0-0.1,0-0.2,0-0.3c0-0.1,0-0.3,0-0.3c-0.1,0.2-0.1,0.3-0.3,0.5c-0.1,0.1-0.3,0.2-0.5,0.3c-0.3,0.1-0.5,0-0.7-0.2
		c-0.2-0.2-0.2-0.4-0.2-0.7c0-0.3,0.1-0.5,0.2-0.8c0.1-0.2,0.3-0.4,0.4-0.5c0.2-0.2,0.4-0.3,0.6-0.3c0.2-0.1,0.5-0.1,0.8-0.1
		c0.3,0,0.5,0.1,0.8,0.2c0,0.1,0,0.2,0,0.3c-0.1,0.1-0.1,0.2-0.2,0.2c-0.3-0.1-0.6-0.2-0.9-0.1c-0.2,0-0.3,0.1-0.4,0.3
		c-0.1,0.1-0.2,0.3-0.2,0.5c0,0.2,0,0.3,0,0.4c0,0.1,0.1,0.1,0.1,0.1c0,0,0.1,0,0.2-0.1c0.1-0.1,0.1-0.2,0.2-0.4
		c0.1-0.3,0.1-0.4,0.1-0.6c0.1-0.1,0.2-0.1,0.5-0.1c0.2,0,0.4,0.1,0.4,0.1c0,0.2,0,0.4,0,0.6c0,0.2,0,0.5,0,0.7
		C244.5,83.2,244.7,82.8,244.9,82.2z"/>
	<path class="st19" d="M246.2,81.2c-0.1,0-0.1,0.1-0.2,0.2c0,0.1-0.1,0.3,0,0.4c0.1,0,0.2-0.1,0.3-0.2c0.1-0.1,0.1-0.2,0.1-0.3
		C246.3,81.3,246.2,81.2,246.2,81.2 M246.1,80.7c0.2,0,0.3,0,0.5,0c0.1,0,0.3,0.1,0.3,0.2c0.1,0.1,0.1,0.2,0.2,0.3
		c0,0.1,0,0.2,0,0.3c0,0.2-0.2,0.4-0.3,0.5c-0.2,0.1-0.4,0.2-0.7,0.2c0.1,0.2,0.3,0.3,0.5,0.3c0.2,0,0.5-0.1,0.7-0.2
		c0.2-0.2,0.4-0.4,0.4-0.6c0,0,0,0,0.1,0c0,0,0.1,0,0.1,0.1c0,0,0.1,0,0.1,0.1c-0.1,0.4-0.3,0.7-0.5,0.9c-0.2,0.2-0.5,0.3-0.9,0.4
		c-0.4,0.1-0.7,0.1-1-0.1c-0.3-0.1-0.4-0.4-0.5-0.7c-0.1-0.4,0-0.7,0.2-1C245.4,80.9,245.7,80.7,246.1,80.7z"/>
	<path class="st19" d="M220.3,93.4c-0.1-0.4-0.4-0.6-0.8-0.5l-0.4,0.1l0.3,1.3l0.4-0.1C220.2,94.1,220.4,93.7,220.3,93.4
		 M219.1,94.7l-0.4-2l0.8-0.2c0.6-0.1,1.2,0.2,1.3,0.8c0.1,0.6-0.2,1.1-0.9,1.3L219.1,94.7z"/>
	<polygon class="st19" points="221.9,94.1 221.4,92.1 222.9,91.8 223,92.1 222,92.4 222,92.8 223,92.6 223.1,93 222.1,93.2 
		222.2,93.6 223.2,93.4 223.3,93.8 	"/>
	<path class="st19" d="M224,93.4l0.2-0.4c0.2,0.1,0.4,0.2,0.7,0.1c0.2-0.1,0.3-0.2,0.3-0.3c-0.1-0.4-1.2,0.1-1.4-0.6
		c-0.1-0.3,0.2-0.7,0.6-0.8c0.3-0.1,0.6,0,0.9,0.1l-0.2,0.4c-0.2-0.1-0.4-0.1-0.6-0.1c-0.2,0-0.3,0.1-0.2,0.3
		c0.1,0.3,1.2-0.1,1.4,0.6c0.1,0.4-0.1,0.7-0.7,0.8C224.5,93.6,224.2,93.5,224,93.4"/>
	
		<rect x="226.2" y="91" transform="matrix(0.9781 -0.2082 0.2082 0.9781 -14.2128 49.1654)" class="st19" width="0.4" height="2.1"/>
	<path class="st19" d="M227.2,91.9c-0.1-0.6,0.3-1.2,0.9-1.3c0.4-0.1,0.7,0.1,0.9,0.3l-0.3,0.3c-0.1-0.1-0.3-0.2-0.5-0.2
		c-0.4,0.1-0.6,0.4-0.5,0.8c0.1,0.4,0.4,0.6,0.8,0.5c0.2,0,0.3-0.2,0.4-0.2l-0.1-0.2l-0.5,0.1l-0.1-0.4l1-0.2l0.2,0.8
		c-0.2,0.3-0.4,0.5-0.8,0.6C227.9,92.9,227.3,92.6,227.2,91.9"/>
	<polygon class="st19" points="231.5,92.1 230.3,90.9 230.6,92.3 230.1,92.4 229.7,90.3 230.1,90.2 231.4,91.3 231.1,90 231.5,89.9 
		232,92 	"/>
	<polygon class="st19" points="232.9,91.8 232.4,89.7 233.9,89.4 234,89.8 233,90 233,90.5 234,90.2 234.1,90.6 233.1,90.8 
		233.2,91.3 234.2,91.1 234.3,91.5 	"/>
	<path class="st19" d="M236.1,89.7c0-0.2-0.2-0.2-0.4-0.2l-0.5,0.1l0.1,0.6l0.5-0.1C236,90,236.1,89.8,236.1,89.7 M236.3,91
		l-0.6-0.6l-0.3,0.1l0.2,0.7l-0.4,0.1l-0.4-2l1-0.2c0.4-0.1,0.7,0.1,0.8,0.5c0.1,0.4-0.1,0.6-0.3,0.7l0.6,0.7L236.3,91z"/>
	<path class="st19" d="M237.8,89.7c-0.1-0.6,0.3-1.2,0.9-1.3c0.5-0.1,0.8,0.1,1,0.3l-0.3,0.3c-0.1-0.1-0.3-0.2-0.5-0.2
		c-0.4,0.1-0.6,0.4-0.5,0.8c0.1,0.4,0.4,0.6,0.8,0.5c0.2,0,0.4-0.2,0.4-0.4l0.4,0.1c-0.1,0.3-0.3,0.6-0.7,0.7
		C238.5,90.6,237.9,90.3,237.8,89.7"/>
	<path class="st19" d="M241,88.4l-0.1,0.9l0.6-0.1L241,88.4z M241.9,89.9l-0.2-0.3l-0.9,0.2l-0.1,0.4l-0.5,0.1l0.4-2.2l0.5-0.1
		l1.2,1.9L241.9,89.9z"/>
	<polygon class="st19" points="244.1,89.4 243.3,88.7 243.2,88.9 243.3,89.6 242.9,89.7 242.4,87.6 242.9,87.5 243.1,88.4 
		243.6,87.4 244.1,87.2 243.5,88.4 244.6,89.3 	"/>
	<polygon class="st19" points="245.1,89.2 244.6,87.1 246.1,86.8 246.2,87.2 245.2,87.4 245.3,87.9 246.2,87.6 246.3,88 245.3,88.2 
		245.4,88.7 246.5,88.5 246.5,88.9 	"/>
	<path class="st19" d="M247.2,88.4l0.2-0.4c0.2,0.1,0.4,0.2,0.7,0.1c0.2-0.1,0.3-0.2,0.3-0.3c-0.1-0.4-1.2,0.1-1.4-0.6
		c-0.1-0.3,0.2-0.7,0.6-0.8c0.3-0.1,0.6,0,0.9,0.1l-0.2,0.4c-0.2-0.1-0.4-0.1-0.6-0.1c-0.2,0-0.3,0.1-0.2,0.3
		c0.1,0.3,1.2-0.1,1.4,0.6c0.1,0.4-0.1,0.7-0.7,0.8C247.7,88.7,247.4,88.6,247.2,88.4"/>
	<path class="st19" d="M228.5,78.7c0,0.1,0,0.2-0.2,0.3c-0.1,0-0.2,0-0.3-0.2c0-0.1,0-0.2,0.2-0.3C228.4,78.5,228.5,78.5,228.5,78.7
		 M231.3,78.3C231.3,78.3,231.3,78.3,231.3,78.3L231.3,78.3C231.3,78.3,231.3,78.3,231.3,78.3z M231.5,77.2c0-0.1,0-0.2,0.2-0.3
		c0.1,0,0.2,0,0.3,0.2s0,0.2-0.2,0.3C231.6,77.4,231.5,77.3,231.5,77.2z M233.2,79.3l0.3-2.5c0.4-0.3,0.7-0.6,1-0.8
		c-0.1,1.2-0.2,2.3-0.2,2.5C234.2,78.6,233.9,79,233.2,79.3z M228.2,79.7l0.1,0.4c-0.3-0.1-0.5-0.2-0.7-0.2
		C227.9,79.8,228,79.7,228.2,79.7z M230.1,77.7c-0.2,0-0.3-0.1-0.4-0.2c0-0.2,0.1-0.3,0.2-0.4c0.2,0,0.3,0.1,0.4,0.2
		C230.4,77.5,230.3,77.7,230.1,77.7z M231.7,78.1c0.6-0.3,1.1-0.7,1.5-1l-0.3,2.4c-0.4,0.2-0.8,0.4-1.3,0.5L231.7,78.1z M228.5,79.6
		c0.4-0.1,0.8-0.3,1.2-0.4l0.2,1.1c-0.5,0-0.9-0.1-1.2-0.1L228.5,79.6z M230,79c0.2-0.1,0.4-0.2,0.6-0.3c0.1,0.1,0.3,0.2,0.4,0.2
		c0.2,0,0.3-0.2,0.4-0.4l0,1.6c-0.1,0-0.1,0-0.2,0c-0.4,0.1-0.7,0.1-1,0.1L230,79z M228.2,77.3c0,0.2-0.1,0.4-0.3,0.5
		c-0.2,0-0.4-0.1-0.5-0.3c0-0.2,0.1-0.4,0.3-0.5S228.2,77.1,228.2,77.3z M228.9,76.4c-1.5-0.2-2.9-0.6-3.1,0c0,0,1.3,3.2,1.4,3.4
		c0.1,0.2,1.9,0.9,3.9,0.4c2-0.4,3.1-1.5,3.2-1.8c0.1-0.3,0.3-3.1,0.3-3.1C233.4,76.7,230.6,76.6,228.9,76.4z"/>
</g>
</svg>
