<svg width="32" height="35" viewBox="0 0 32 35" fill="none" xmlns="http://www.w3.org/2000/svg">
<g filter="url(#filter0_d)">
<path d="M16 2.41675C9.55998 2.41675 4.33331 7.83008 4.33331 14.5001C4.33331 21.1701 9.55998 26.5834 16 26.5834H21.8333V24.1667H16C10.9366 24.1667 6.66665 19.7442 6.66665 14.5001C6.66665 9.25591 10.9366 4.83341 16 4.83341C21.0633 4.83341 25.3333 9.25591 25.3333 14.5001V16.228C25.3333 17.1826 24.505 18.1251 23.5833 18.1251C22.6616 18.1251 21.8333 17.1826 21.8333 16.228V14.5001C21.8333 11.1651 19.22 8.45841 16 8.45841C12.78 8.45841 10.1666 11.1651 10.1666 14.5001C10.1666 17.8351 12.78 20.5417 16 20.5417C17.61 20.5417 19.08 19.8651 20.13 18.7655C20.8883 19.8409 22.195 20.5417 23.5833 20.5417C25.8816 20.5417 27.6666 18.6084 27.6666 16.228V14.5001C27.6666 7.83008 22.44 2.41675 16 2.41675ZM16 18.1251C14.0633 18.1251 12.5 16.5059 12.5 14.5001C12.5 12.4942 14.0633 10.8751 16 10.8751C17.9366 10.8751 19.5 12.4942 19.5 14.5001C19.5 16.5059 17.9366 18.1251 16 18.1251Z" fill="black"/>
</g>
<defs>
<filter id="filter0_d" x="-2" y="0" width="36" height="37" filterUnits="userSpaceOnUse" color-interpolation-filters="sRGB">
<feFlood flood-opacity="0" result="BackgroundImageFix"/>
<feColorMatrix in="SourceAlpha" type="matrix" values="0 0 0 0 0 0 0 0 0 0 0 0 0 0 0 0 0 0 127 0"/>
<feOffset dy="4"/>
<feGaussianBlur stdDeviation="2"/>
<feColorMatrix type="matrix" values="0 0 0 0 0 0 0 0 0 0 0 0 0 0 0 0 0 0 0.25 0"/>
<feBlend mode="normal" in2="BackgroundImageFix" result="effect1_dropShadow"/>
<feBlend mode="normal" in="SourceGraphic" in2="effect1_dropShadow" result="shape"/>
</filter>
</defs>
</svg>
