<svg xmlns="http://www.w3.org/2000/svg" width="308" height="64" fill="none" viewBox="0 0 308 64">
  <g filter="url(#filter0_d)">
    <path fill="url(#paint0_linear)" d="M27.304 41.864c-3.2 0-5.936-.56-8.208-1.68-2.24-1.12-4.048-2.576-5.424-4.368-1.376-1.792-2.384-3.728-3.024-5.808-.64-2.112-.96-4.144-.96-6.096v-1.056c0-2.112.32-4.224.96-6.336a17.865 17.865 0 013.072-5.76c1.376-1.728 3.168-3.12 5.376-4.176S23.944 5 27.016 5c4.672 0 8.352 1.2 11.04 3.6 2.72 2.368 4.304 5.536 4.752 9.504h-4.8c-.416-2.976-1.648-5.184-3.696-6.624-2.016-1.44-4.448-2.16-7.296-2.16-2.752 0-5.072.64-6.96 1.92-1.856 1.248-3.248 2.944-4.176 5.088-.928 2.112-1.392 4.48-1.392 7.104 0 2.496.464 4.816 1.392 6.96.96 2.144 2.384 3.872 4.272 5.184 1.92 1.312 4.304 1.968 7.152 1.968 3.008 0 5.536-.752 7.584-2.256 2.048-1.504 3.296-3.68 3.744-6.528h4.8a15.471 15.471 0 01-2.448 6.576c-1.28 1.984-3.072 3.568-5.376 4.752-2.272 1.184-5.04 1.776-8.304 1.776zm29.372-.192c-2.912 0-5.2-.72-6.864-2.16-1.632-1.472-2.448-3.536-2.448-6.192 0-2.72.912-4.768 2.736-6.144 1.824-1.408 4.4-2.112 7.728-2.112h6.48v-.624c0-3.552-1.792-5.328-5.376-5.328-1.472 0-3.008.032-4.608.096-1.6.064-2.928.128-3.984.192v-4.032c1.024-.096 2.16-.16 3.408-.192a73.198 73.198 0 013.648-.096c3.936 0 6.8.72 8.592 2.16 1.824 1.44 2.736 3.952 2.736 7.536V41h-3.648v-5.088c-1.152 3.84-3.952 5.76-8.4 5.76zm.96-3.648a8.567 8.567 0 003.12-.576c.992-.416 1.808-1.088 2.448-2.016.672-.96 1.04-2.272 1.104-3.936V28.52h-6.672c-1.856 0-3.28.448-4.272 1.344-.992.896-1.488 2.048-1.488 3.456s.496 2.544 1.488 3.408c.992.864 2.416 1.296 4.272 1.296zM77.182 41V5.96h4.608v22.128l10.944-12.72h4.848l-9.456 10.944L100.174 41h-5.328l-9.648-11.952H81.79V41h-4.608zm37.849.864c-2.24 0-4.176-.384-5.808-1.152-1.632-.768-2.96-1.776-3.984-3.024a13.48 13.48 0 01-2.304-4.272 16.31 16.31 0 01-.72-4.8v-.864c0-1.664.24-3.28.72-4.848a12.916 12.916 0 012.304-4.224c1.024-1.28 2.32-2.288 3.888-3.024 1.6-.768 3.472-1.152 5.616-1.152 2.784 0 5.072.608 6.864 1.824 1.824 1.184 3.168 2.72 4.032 4.608.896 1.888 1.344 3.904 1.344 6.048v2.064h-20.352c.16 2.528.912 4.624 2.256 6.288 1.344 1.664 3.392 2.496 6.144 2.496 2.016 0 3.648-.448 4.896-1.344 1.28-.896 2.048-1.936 2.304-3.12h4.32c-.544 2.656-1.84 4.736-3.888 6.24-2.048 1.504-4.592 2.256-7.632 2.256zm-.288-23.328c-2.304 0-4.112.656-5.424 1.968-1.312 1.28-2.144 2.976-2.496 5.088h15.648c-.288-2.176-1.072-3.888-2.352-5.136-1.28-1.28-3.072-1.92-5.376-1.92zM145.119 41V5.96h7.68l17.808 30.816h.576V5.96h4.512V41h-7.776l-17.808-30.816h-.576V41h-4.416zm48.943.768c-3.04 0-5.376-.992-7.008-2.976-1.632-1.984-2.448-4.848-2.448-8.592V15.32h4.608v15.792c0 2.016.544 3.6 1.632 4.752 1.088 1.12 2.56 1.68 4.416 1.68 1.92 0 3.488-.608 4.704-1.824 1.216-1.248 1.824-2.944 1.824-5.088V15.32h4.608V41h-3.648v-5.904c-.576 2.176-1.568 3.84-2.976 4.992-1.408 1.12-3.248 1.68-5.52 1.68h-.192zm28.364-.096c-2.912 0-5.2-.72-6.864-2.16-1.632-1.472-2.448-3.536-2.448-6.192 0-2.72.912-4.768 2.736-6.144 1.824-1.408 4.4-2.112 7.728-2.112h6.48v-.624c0-3.552-1.792-5.328-5.376-5.328-1.472 0-3.008.032-4.608.096-1.6.064-2.928.128-3.984.192v-4.032c1.024-.096 2.16-.16 3.408-.192a73.198 73.198 0 013.648-.096c3.936 0 6.8.72 8.592 2.16 1.824 1.44 2.736 3.952 2.736 7.536V41h-3.648v-5.088c-1.152 3.84-3.952 5.76-8.4 5.76zm.96-3.648a8.567 8.567 0 003.12-.576c.992-.416 1.808-1.088 2.448-2.016.672-.96 1.04-2.272 1.104-3.936V28.52h-6.672c-1.856 0-3.28.448-4.272 1.344-.992.896-1.488 2.048-1.488 3.456s.496 2.544 1.488 3.408c.992.864 2.416 1.296 4.272 1.296zm29.242 12.96c-2.4 0-4.736-.176-7.008-.528v-3.888a59.18 59.18 0 003.6.384c1.28.128 2.48.192 3.6.192 3.52 0 5.984-.72 7.392-2.16 1.44-1.408 2.16-3.68 2.16-6.816v-2.304c-.96 1.792-2.256 3.136-3.888 4.032-1.6.864-3.376 1.296-5.328 1.296-2.4 0-4.512-.592-6.336-1.776-1.824-1.216-3.248-2.816-4.272-4.8s-1.536-4.16-1.536-6.528v-.864c0-2.4.528-4.56 1.584-6.48a11.962 11.962 0 014.368-4.56c1.856-1.12 4-1.68 6.432-1.68 2.24 0 4.192.496 5.856 1.488 1.696.992 2.992 2.432 3.888 4.32v-4.944h3.648v22.608c0 3.072-.48 5.552-1.44 7.44-.928 1.92-2.432 3.328-4.512 4.224-2.048.896-4.784 1.344-8.208 1.344zm1.392-14.016c1.536 0 2.928-.336 4.176-1.008a7.486 7.486 0 003.024-2.88c.768-1.28 1.152-2.8 1.152-4.56v-2.208c0-1.728-.4-3.184-1.2-4.368a7.422 7.422 0 00-3.024-2.688c-1.248-.608-2.608-.912-4.08-.912-2.528 0-4.576.848-6.144 2.544-1.536 1.696-2.304 3.952-2.304 6.768 0 2.848.784 5.12 2.352 6.816 1.6 1.664 3.616 2.496 6.048 2.496zm32.198 4.896c-2.24 0-4.176-.384-5.808-1.152-1.632-.768-2.96-1.776-3.984-3.024a13.48 13.48 0 01-2.304-4.272 16.31 16.31 0 01-.72-4.8v-.864c0-1.664.24-3.28.72-4.848a12.916 12.916 0 012.304-4.224c1.024-1.28 2.32-2.288 3.888-3.024 1.6-.768 3.472-1.152 5.616-1.152 2.784 0 5.072.608 6.864 1.824 1.824 1.184 3.168 2.72 4.032 4.608.896 1.888 1.344 3.904 1.344 6.048v2.064h-20.352c.16 2.528.912 4.624 2.256 6.288 1.344 1.664 3.392 2.496 6.144 2.496 2.016 0 3.648-.448 4.896-1.344 1.28-.896 2.048-1.936 2.304-3.12h4.32c-.544 2.656-1.84 4.736-3.888 6.24-2.048 1.504-4.592 2.256-7.632 2.256zm-.288-23.328c-2.304 0-4.112.656-5.424 1.968-1.312 1.28-2.144 2.976-2.496 5.088h15.648c-.288-2.176-1.072-3.888-2.352-5.136-1.28-1.28-3.072-1.92-5.376-1.92z"/>
  </g>
  <defs>
    <linearGradient id="paint0_linear" x1="7" x2="301" y1="25" y2="25" gradientUnits="userSpaceOnUse">
      <stop stop-color="#9795F0"/>
      <stop offset="1" stop-color="#FBC8D4"/>
    </linearGradient>
    <filter id="filter0_d" width="306.482" height="63.984" x=".688" y="0" color-interpolation-filters="sRGB" filterUnits="userSpaceOnUse">
      <feFlood flood-opacity="0" result="BackgroundImageFix"/>
      <feColorMatrix in="SourceAlpha" values="0 0 0 0 0 0 0 0 0 0 0 0 0 0 0 0 0 0 127 0"/>
      <feOffset dy="4"/>
      <feGaussianBlur stdDeviation="4.5"/>
      <feColorMatrix values="0 0 0 0 0.991667 0 0 0 0 0.983403 0 0 0 0 0.983403 0 0 0 0.25 0"/>
      <feBlend in2="BackgroundImageFix" result="effect1_dropShadow"/>
      <feBlend in="SourceGraphic" in2="effect1_dropShadow" result="shape"/>
    </filter>
  </defs>
</svg>
