<svg width="89" height="69" viewBox="0 0 89 69" fill="none" xmlns="http://www.w3.org/2000/svg">
<path d="M16.1828 68.6571V64.0902C16.1828 62.3392 15.1142 61.1978 13.2826 61.1978C12.367 61.1978 11.3748 61.5022 10.6879 62.4918C10.154 61.6544 9.39097 61.1978 8.24626 61.1978C7.48288 61.1978 6.7202 61.4259 6.10943 62.2633V61.35H4.5069V68.6571H6.10943V64.6228C6.10943 63.3292 6.79633 62.72 7.86492 62.72C8.93281 62.72 9.46745 63.4051 9.46745 64.6228V68.6571H11.07V64.6228C11.07 63.3292 11.8327 62.72 12.8248 62.72C13.8934 62.72 14.4273 63.4051 14.4273 64.6228V68.6571H16.1828V68.6571ZM39.9152 61.35H37.3209V59.1427H35.7184V61.35H34.2685V62.7959H35.7181V66.1453C35.7181 67.8201 36.4049 68.8093 38.2366 68.8093C38.9235 68.8093 39.6861 68.5811 40.2208 68.2767L39.7626 66.9064C39.3048 67.2109 38.7709 67.2871 38.3892 67.2871C37.6261 67.2871 37.3209 66.8305 37.3209 66.0691V62.7959H39.9152V61.35V61.35ZM53.4989 61.1974C52.5832 61.1974 51.9728 61.6544 51.5911 62.2633V61.35H49.9886V68.6571H51.5911V64.5469C51.5911 63.3292 52.1251 62.644 53.1172 62.644C53.4224 62.644 53.8041 62.7203 54.1093 62.7962L54.5671 61.2741C54.2619 61.1978 53.8041 61.1978 53.4989 61.1978V61.1974ZM32.9711 61.9589C32.2078 61.4259 31.1395 61.1978 29.9948 61.1978C28.1636 61.1978 26.9427 62.1111 26.9427 63.5573C26.9427 64.7754 27.8583 65.4602 29.4609 65.6887L30.2239 65.765C31.0634 65.9168 31.5212 66.1453 31.5212 66.5261C31.5212 67.0586 30.9108 67.4393 29.8422 67.4393C28.774 67.4393 27.9345 67.0586 27.4002 66.6783L26.6371 67.896C27.4767 68.5049 28.6214 68.8093 29.7657 68.8093C31.9026 68.8093 33.1238 67.8201 33.1238 66.4498C33.1238 65.1558 32.1316 64.4706 30.6052 64.2425L29.8422 64.1662C29.1553 64.0899 28.6214 63.938 28.6214 63.4814C28.6214 62.9484 29.1553 62.644 29.9948 62.644C30.9108 62.644 31.8264 63.0244 32.2842 63.2529L32.9711 61.9589V61.9589ZM75.553 61.1978C74.637 61.1978 74.0266 61.6544 73.6449 62.2633V61.35H72.0424V68.6571H73.6449V64.5469C73.6449 63.3292 74.1792 62.644 75.171 62.644C75.4765 62.644 75.8582 62.7203 76.1634 62.7962L76.6212 61.2741C76.316 61.1978 75.8582 61.1978 75.553 61.1978V61.1978ZM55.1014 65.0035C55.1014 67.2108 56.6275 68.8093 58.9934 68.8093C60.0616 68.8093 60.8246 68.5811 61.5877 67.9723L60.8246 66.6783C60.2142 67.1349 59.6038 67.3631 58.9169 67.3631C57.6196 67.3631 56.7039 66.4498 56.7039 65.0035C56.7039 63.6336 57.6196 62.72 58.9169 62.644C59.6038 62.644 60.2142 62.8722 60.8246 63.3292L61.5877 62.0351C60.8246 61.4259 60.0616 61.1978 58.9934 61.1978C56.6275 61.1978 55.1014 62.7962 55.1014 65.0035ZM69.9059 65.0035V61.35H68.3034V62.2633C67.7691 61.5785 67.006 61.1978 66.0139 61.1978C63.9536 61.1978 62.351 62.7962 62.351 65.0035C62.351 67.2108 63.9536 68.8093 66.0139 68.8093C67.0822 68.8093 67.8455 68.4289 68.3034 67.7438V68.6571H69.9059V65.0035V65.0035ZM64.0297 65.0035C64.0297 63.7095 64.8692 62.644 66.2427 62.644C67.54 62.644 68.456 63.6336 68.456 65.0035C68.456 66.2976 67.54 67.3631 66.2427 67.3631C64.8692 67.2868 64.0297 66.2976 64.0297 65.0035V65.0035ZM44.8758 61.1978C42.739 61.1978 41.2125 62.72 41.2125 65.0035C41.2125 67.2871 42.7386 68.8093 44.9519 68.8093C46.0201 68.8093 47.0887 68.5049 47.9282 67.8201L47.1649 66.6783C46.5544 67.1349 45.7914 67.4393 45.0284 67.4393C44.0363 67.4393 43.0442 66.9827 42.8151 65.6883H48.2335V65.0798C48.3099 62.72 46.9361 61.1978 44.8754 61.1978H44.8758ZM44.8758 62.5677C45.8675 62.5677 46.5548 63.1769 46.707 64.3187H42.8916C43.0442 63.3292 43.7311 62.5677 44.8758 62.5677ZM84.6339 65.0035V58.4576H83.0314V62.2633C82.4971 61.5785 81.734 61.1978 80.7419 61.1978C78.6816 61.1978 77.079 62.7962 77.079 65.0035C77.079 67.2108 78.6816 68.8093 80.7419 68.8093C81.8105 68.8093 82.5735 68.4289 83.0314 67.7438V68.6571H84.6339V65.0035V65.0035ZM78.7581 65.0035C78.7581 63.7095 79.5972 62.644 80.971 62.644C82.2683 62.644 83.184 63.6336 83.184 65.0035C83.184 66.2976 82.2683 67.3631 80.971 67.3631C79.5972 67.2868 78.7581 66.2976 78.7581 65.0035V65.0035ZM25.1872 65.0035V61.35H23.5847V62.2633C23.0504 61.5785 22.2874 61.1978 21.2953 61.1978C19.2349 61.1978 17.6324 62.7962 17.6324 65.0035C17.6324 67.2108 19.2349 68.8093 21.2953 68.8093C22.3638 68.8093 23.1269 68.4289 23.5847 67.7438V68.6571H25.1872V65.0035V65.0035ZM19.2349 65.0035C19.2349 63.7095 20.0744 62.644 21.4479 62.644C22.7452 62.644 23.6612 63.6336 23.6612 65.0035C23.6612 66.2976 22.7452 67.3631 21.4479 67.3631C20.0744 67.2868 19.2349 66.2976 19.2349 65.0035V65.0035Z" fill="black"/>
<path d="M32.4368 5.86084H56.4748V48.9428H32.4368V5.86084Z" fill="#FF5F00"/>
<path d="M33.9633 27.402C33.9633 18.6487 38.084 10.8847 44.4176 5.86084C39.763 2.20731 33.8871 0 27.477 0C12.2905 0 0.0045166 12.2546 0.0045166 27.402C0.0045166 42.5491 12.2905 54.804 27.4767 54.804C33.8868 54.804 39.7626 52.5967 44.4176 48.9428C38.084 43.9953 33.9633 36.1553 33.9633 27.402V27.402Z" fill="#EB001B"/>
<path d="M88.9072 27.402C88.9072 42.5491 76.6213 54.804 61.4351 54.804C55.025 54.804 49.1491 52.5967 44.4941 48.9428C50.9043 43.9194 54.9488 36.1553 54.9488 27.402C54.9488 18.6487 50.8278 10.8847 44.4941 5.86084C49.1488 2.20731 55.025 0 61.4351 0C76.6213 0 88.9076 12.3309 88.9076 27.402H88.9072Z" fill="#F79E1B"/>
</svg>
