<svg width="23" height="23" viewBox="0 0 23 23" fill="none" xmlns="http://www.w3.org/2000/svg">
<g clip-path="url(#clip0_1155_88)">
<path d="M11.5003 0C8.40294 0 5.86489 2.53069 5.86489 5.61936C5.86489 6.81605 6.24715 7.9281 6.89414 8.84235L10.8126 15.6161C11.3614 16.333 11.7257 16.1966 12.1823 15.5779L16.504 8.22342C16.5914 8.06541 16.6602 7.89682 16.7197 7.72524C16.994 7.05702 17.135 6.34166 17.1349 5.61936C17.1349 2.53069 14.5978 0 11.5003 0ZM11.5003 2.63281C13.1681 2.63281 14.4945 3.95623 14.4945 5.61936C14.4945 7.28226 13.1681 8.60476 11.5003 8.60476C9.83239 8.60476 8.50529 7.28226 8.50529 5.61936C8.50529 3.95623 9.83239 2.63281 11.5003 2.63281ZM6.47094 11.5C6.35419 11.5 6.23884 11.5254 6.13287 11.5744C6.02691 11.6234 5.93288 11.6948 5.8573 11.7838L0.191245 18.4575C0.0917341 18.5746 0.0278386 18.7178 0.00711033 18.8701C-0.0136179 19.0224 0.00968756 19.1775 0.0742723 19.3169C0.138857 19.4564 0.242021 19.5745 0.371572 19.6572C0.501122 19.7399 0.651643 19.7838 0.805345 19.7837L22.1953 19.7687C22.3489 19.7686 22.4993 19.7246 22.6286 19.6418C22.758 19.5591 22.861 19.441 22.9255 19.3016C22.9899 19.1622 23.0132 19.0073 22.9925 18.8551C22.9717 18.7029 22.9079 18.5599 22.8085 18.4428L17.1556 11.7838C17.08 11.6948 16.986 11.6234 16.88 11.5744C16.774 11.5254 16.6587 11.5 16.5419 11.5H15.6449C15.3298 12.0366 15.0166 12.5739 14.701 13.11H16.1691L20.4563 18.1601L2.54553 18.1723L6.84331 13.11H8.29967L7.3684 11.5H6.47094Z" fill="white"/>
</g>
<defs>
<clipPath id="clip0_1155_88">
<rect width="23" height="23" fill="white"/>
</clipPath>
</defs>
</svg>


