<?xml version="1.0" standalone="no"?>
<!DOCTYPE svg PUBLIC "-//W3C//DTD SVG 20010904//EN"
 "http://www.w3.org/TR/2001/REC-SVG-20010904/DTD/svg10.dtd">
<svg version="1.0" xmlns="http://www.w3.org/2000/svg"
 width="928.000000pt" height="928.000000pt" viewBox="0 0 928.000000 928.000000"
 preserveAspectRatio="xMidYMid meet">
<metadata>
Created by potrace 1.14, written by Peter Selinger 2001-2017
</metadata>
<g transform="translate(0.000000,928.000000) scale(0.100000,-0.100000)"
fill="#000000" stroke="none">
<path d="M5158 9276 c-1 -2 -34 -6 -73 -10 -214 -19 -582 -108 -730 -176 -11
-5 -45 -19 -75 -30 -70 -27 -101 -41 -235 -107 -425 -212 -789 -504 -1027
-826 -102 -138 -225 -396 -223 -471 0 -14 9 -20 30 -23 85 -12 385 -105 530
-165 280 -116 498 -236 775 -423 383 -260 785 -439 1234 -550 55 -14 115 -28
131 -30 17 -3 66 -12 110 -20 181 -32 329 -42 555 -39 107 1 215 5 240 7 82 8
154 19 205 29 28 5 64 12 80 14 17 3 48 10 70 16 22 5 47 11 55 13 60 12 265
77 317 100 17 8 35 15 39 15 4 0 40 16 80 35 65 32 74 40 89 79 20 52 15 121
-16 198 -25 65 -71 148 -81 148 -5 0 -8 4 -8 10 0 29 -174 200 -272 268 -42
28 -79 52 -83 52 -4 0 -19 8 -33 18 -60 42 -287 126 -397 147 -90 17 -197 26
-343 30 -89 2 -166 6 -170 9 -4 2 -25 7 -47 10 -62 9 -189 60 -267 106 -83 50
-220 181 -276 265 -106 160 -153 318 -148 500 6 223 97 390 286 526 89 64 263
127 400 144 95 12 105 14 110 15 13 4 -178 64 -239 75 -57 11 -79 15 -141 26
-57 10 -442 22 -452 15z m72 -220 c0 -2 -28 -24 -63 -49 -199 -142 -316 -313
-362 -532 -11 -49 -13 -213 -4 -253 4 -20 11 -52 14 -70 16 -93 84 -245 163
-367 56 -84 205 -236 284 -288 119 -78 259 -134 418 -169 77 -17 134 -21 300
-22 113 0 228 2 255 7 28 4 75 10 105 12 54 6 55 6 24 -9 -47 -21 -187 -62
-284 -83 -106 -23 -407 -25 -515 -4 -332 65 -606 269 -767 571 -184 346 -177
669 22 960 68 99 180 193 307 256 82 42 103 50 103 40z"/>
<path d="M2390 7293 c-251 -52 -437 -182 -582 -408 -79 -122 -146 -283 -178
-425 l-12 -55 -82 -34 c-143 -60 -347 -185 -466 -285 -82 -69 -259 -258 -312
-332 -169 -237 -271 -488 -322 -796 -32 -192 -24 -443 20 -613 86 -337 308
-592 626 -721 l83 -33 8 32 c75 313 224 434 541 441 71 2 247 -16 296 -29 8
-2 29 -7 45 -9 114 -20 575 -157 690 -205 11 -5 67 -25 125 -46 123 -44 515
-194 855 -328 132 -52 251 -98 265 -102 14 -4 39 -13 55 -21 29 -13 340 -108
387 -118 13 -3 43 -10 68 -17 25 -6 56 -13 70 -15 14 -3 39 -9 55 -14 17 -4
48 -12 70 -16 61 -11 67 -12 89 -18 33 -8 305 -54 366 -61 30 -4 62 -9 70 -10
8 -1 44 -6 80 -10 36 -3 79 -8 95 -10 17 -2 68 -7 115 -10 47 -4 95 -8 107
-10 33 -5 383 -18 488 -18 104 0 415 12 460 17 17 2 66 7 110 11 44 4 94 9
110 11 17 2 55 6 85 10 30 3 62 8 70 9 8 2 51 8 95 15 44 7 121 21 170 32 50
10 101 21 115 24 63 12 255 66 350 99 520 180 870 441 1053 787 29 56 74 170
83 213 1 6 10 42 19 80 9 39 19 84 22 100 2 17 6 41 9 55 17 90 21 248 12 391
-40 575 -419 1147 -922 1389 -162 78 -277 105 -436 105 -124 -1 -187 -19 -365
-106 -176 -86 -330 -141 -455 -164 -158 -28 -201 -34 -305 -42 -162 -13 -509
-6 -615 11 -14 3 -50 7 -81 11 -31 3 -67 8 -80 10 -13 3 -37 7 -54 10 -84 12
-120 19 -240 46 -71 17 -138 32 -149 34 -10 3 -44 12 -75 20 -325 92 -610 204
-891 348 -108 56 -140 73 -250 135 -25 14 -180 106 -345 205 -500 300 -704
396 -920 432 -76 13 -230 12 -295 -2z m325 -323 c137 -43 279 -125 580 -337
264 -186 424 -286 630 -394 303 -159 733 -312 1025 -365 14 -3 32 -7 42 -10 9
-2 41 -9 72 -14 31 -6 82 -14 114 -20 77 -13 269 -37 367 -46 44 -4 89 -8 100
-10 11 -1 42 -3 68 -3 31 -1 46 -5 42 -12 -7 -10 -502 -6 -585 5 -19 2 -60 7
-90 10 -90 9 -223 29 -310 47 -342 72 -638 171 -896 299 -231 115 -336 177
-687 411 -131 88 -239 159 -241 159 -3 0 -28 16 -58 35 -103 69 -234 121 -321
129 -110 9 -262 -48 -343 -129 -83 -83 -108 -171 -129 -455 -6 -84 -33 -150
-70 -174 -24 -16 -40 -20 -130 -31 -49 -6 -195 -40 -225 -52 -8 -3 -20 -7 -26
-8 -29 -7 -193 -90 -271 -139 -161 -100 -303 -227 -442 -396 -69 -83 -84 -89
-36 -14 103 162 283 361 409 454 196 143 420 241 624 273 19 3 36 8 38 10 5 5
10 62 19 232 4 88 8 123 19 160 2 6 6 24 11 40 33 123 135 239 267 305 144 71
289 84 433 40z m5842 -1558 c94 -147 143 -311 147 -492 1 -63 -1 -133 -6 -155
-51 -231 -108 -343 -245 -481 -79 -80 -100 -98 -168 -141 -139 -88 -320 -157
-470 -180 -16 -2 -35 -6 -42 -8 -23 -8 -188 -19 -273 -18 -95 0 -215 9 -305
23 -33 5 -76 11 -95 14 -29 4 -70 13 -200 41 -8 1 -76 19 -150 39 -74 21 -142
39 -150 41 -39 10 -333 94 -595 170 -301 86 -543 152 -591 161 -15 3 -30 7
-33 9 -9 5 -349 85 -391 91 -19 3 -38 8 -41 10 -4 2 -24 6 -45 9 -22 4 -52 10
-69 15 -16 5 -48 12 -70 16 -22 3 -43 8 -46 10 -3 2 -21 6 -40 9 -19 3 -81 15
-139 26 -58 11 -121 22 -140 25 -19 3 -46 7 -60 10 -14 2 -47 7 -75 10 -27 3
-55 7 -62 9 -7 2 -45 7 -85 10 -40 4 -84 8 -98 11 -44 7 -302 18 -415 18 -108
0 -295 -11 -318 -19 -7 -2 -30 -6 -52 -9 -70 -10 -109 -17 -142 -26 -18 -5
-33 -5 -33 -1 0 8 138 51 225 70 186 41 350 55 605 55 149 -1 345 -10 403 -19
12 -2 47 -6 77 -10 30 -3 71 -8 90 -10 19 -2 58 -7 85 -11 28 -3 115 -17 195
-30 80 -14 160 -27 179 -30 39 -7 25 -4 216 -44 83 -17 159 -33 170 -36 11 -3
30 -7 41 -10 12 -2 80 -18 150 -35 71 -17 134 -32 139 -33 6 -1 19 -5 30 -9
11 -3 31 -8 45 -11 86 -17 573 -153 840 -236 129 -40 294 -89 320 -95 8 -2 51
-12 95 -24 179 -45 413 -75 590 -75 564 1 948 247 1071 685 8 30 17 110 19
179 6 182 -21 305 -106 473 -45 89 -36 93 18 9z"/>
<path d="M1600 3680 c-82 -17 -145 -59 -182 -118 -22 -36 -24 -45 -14 -95 5
-30 22 -124 31 -172 2 -16 7 -41 10 -55 3 -14 12 -63 20 -110 8 -47 17 -96 20
-110 3 -14 12 -65 21 -115 8 -49 17 -92 19 -95 1 -3 6 -27 9 -54 6 -43 26
-152 73 -396 9 -47 17 -94 19 -105 1 -11 14 -81 29 -155 14 -74 28 -148 31
-165 2 -16 7 -37 9 -45 2 -8 6 -31 9 -50 3 -19 8 -46 11 -60 4 -22 31 -161 41
-215 12 -66 89 -441 115 -560 22 -100 22 -100 83 -159 191 -186 714 -452 1201
-609 249 -81 570 -158 760 -182 22 -3 50 -7 62 -9 12 -3 53 -8 90 -11 37 -4
79 -8 92 -10 150 -24 799 -24 941 0 14 2 52 6 85 9 64 5 85 8 235 32 52 9 104
17 115 18 57 9 210 40 280 58 44 11 90 22 102 24 52 10 327 97 433 137 348
133 600 273 747 415 18 19 43 67 65 127 64 174 276 842 364 1145 14 47 34 114
45 150 11 36 22 72 24 80 2 8 37 128 78 265 107 358 110 368 114 388 4 23 3
23 -80 -22 -143 -76 -447 -182 -591 -205 -19 -3 -55 -10 -78 -15 -170 -37
-406 -55 -723 -55 -228 0 -333 4 -490 19 -22 3 -67 7 -100 10 -64 6 -206 24
-241 30 -12 2 -48 7 -80 11 -33 4 -61 8 -64 9 -3 1 -25 5 -50 9 -65 11 -311
55 -340 61 -14 3 -34 7 -45 9 -226 45 -745 176 -960 241 -487 148 -619 193
-1125 388 -461 177 -630 236 -794 278 -84 22 -88 23 -184 38 -69 11 -194 12
-242 1z"/>
</g>
</svg>
