<svg width="155" height="50" viewBox="0 0 155 50" fill="none" xmlns="http://www.w3.org/2000/svg">
<path d="M80.1622 15.9844C80.0738 22.9496 86.3762 26.8363 91.1237 29.1473C96.0013 31.5182 97.6397 33.0388 97.6203 35.1593C97.584 38.4042 93.7296 39.8365 90.1228 39.8921C83.8302 39.9895 80.1713 38.1949 77.2627 36.8377L74.9958 47.4337C77.9141 48.777 83.3179 49.9486 88.9216 50C102.075 50 110.681 43.5138 110.728 33.4573C110.779 20.6942 93.0551 19.9878 93.1762 14.283C93.218 12.5532 94.8703 10.7073 98.491 10.2379C100.283 10.0008 105.23 9.8194 110.84 12.3996L113.041 2.14775C110.025 1.05059 106.148 4.94965e-07 101.321 4.94965e-07C88.9403 4.94965e-07 80.2325 6.57449 80.1622 15.9844V15.9844ZM134.195 0.88305C131.793 0.88305 129.769 2.28262 128.866 4.43037L110.076 49.247H123.22L125.836 42.0259H141.898L143.415 49.247H155L144.89 0.88305H134.195V0.88305ZM136.034 13.948L139.827 32.1092H129.438L136.034 13.948V13.948ZM64.2257 0.883655L53.8649 49.2464H66.3903L76.7462 0.882446H64.2257V0.883655ZM45.6965 0.882446L32.6596 33.8015L27.386 5.8118C26.7672 2.68726 24.3235 0.88305 21.6098 0.88305H0.298496L0 2.28746C4.37512 3.23583 9.34602 4.76545 12.3576 6.40211C14.2007 7.4019 14.7262 8.27588 15.3317 10.6516L25.3201 49.247H38.5563L58.8491 0.88305H45.6965" fill="url(#paint0_linear)"/>
<defs>
<linearGradient id="paint0_linear" x1="71.2597" y1="51.003" x2="72.7055" y2="-0.347818" gradientUnits="userSpaceOnUse">
<stop stop-color="#222357"/>
<stop offset="1" stop-color="#254AA5"/>
</linearGradient>
</defs>
</svg>
